<?xml version="1.0" encoding="UTF-8" standalone="no"?>
<svg id="svg2" xmlns:rdf="http://www.w3.org/1999/02/22-rdf-syntax-ns#" xmlns="http://www.w3.org/2000/svg" height="4646pt" width="3708pt" version="1.1" xmlns:cc="http://creativecommons.org/ns#" xmlns:xlink="http://www.w3.org/1999/xlink" viewBox="0 0 3708 4646" xmlns:dc="http://purl.org/dc/elements/1.1/">
<defs id="defs124">
<linearGradient id="linearGradient4286">
<stop id="stop4288" stop-color="#996d58" offset="0"/>
<stop id="stop4290" stop-color="#3f251c" offset="1"/>
</linearGradient>
<linearGradient id="linearGradient4292" y2="3849.4" xlink:href="#linearGradient4286" gradientUnits="userSpaceOnUse" x2="2174.4" gradientTransform="translate(9600)" y1="3849.4" x1="1728.4"/>
<linearGradient id="linearGradient4300" y2="2347.1" xlink:href="#linearGradient4286" gradientUnits="userSpaceOnUse" x2="2021.9" gradientTransform="translate(9600)" y1="2347.1" x1="1750.9"/>
<linearGradient id="linearGradient4308" y2="2557.8" xlink:href="#linearGradient4286" gradientUnits="userSpaceOnUse" x2="2051.6" gradientTransform="translate(9600)" y1="2557.8" x1="1753.5"/>
<linearGradient id="linearGradient4316" y2="2760.1" xlink:href="#linearGradient4286" gradientUnits="userSpaceOnUse" x2="2070.6" gradientTransform="translate(9600)" y1="2760.1" x1="1748.6"/>
<linearGradient id="linearGradient4324" y2="2993.4" xlink:href="#linearGradient4286" gradientUnits="userSpaceOnUse" x2="2078.4" gradientTransform="translate(9600)" y1="2993.4" x1="1746.4"/>
<linearGradient id="linearGradient4332" y2="3248.6" xlink:href="#linearGradient4286" gradientUnits="userSpaceOnUse" x2="2121" gradientTransform="translate(9600)" y1="3248.6" x1="1735.3"/>
<linearGradient id="linearGradient4340" y2="3552.2" xlink:href="#linearGradient4286" gradientUnits="userSpaceOnUse" x2="2149.6" gradientTransform="translate(9600)" y1="3552.2" x1="1738.2"/>
<linearGradient id="linearGradient4348" y2="4200.3" xlink:href="#linearGradient4286" gradientUnits="userSpaceOnUse" x2="2213.5" gradientTransform="translate(9600)" y1="4200.3" x1="1718.2"/>
<linearGradient id="linearGradient4356" y2="2178.6" xlink:href="#linearGradient4286" gradientUnits="userSpaceOnUse" x2="2015.1" gradientTransform="translate(9600)" y1="2178.6" x1="1779"/>
</defs>
<g id="g4403" transform="translate(-9600)">
<g>
<path id="rect4400" d="m12339 22.844c-144.15 0.10513-289.31 24.932-422.16 81.836-7.92 2.34-14.4 7.56-17.711 15.3-69.9 102.86-116.01 219.69-152.34 338l-0.79-0.25c18.68-99.11 45.03-196.88 79.07-291.82-113.58 49.7-221.1 119.19-300.17 215.95-38.24 114.52-34.291 237.09-36.38 356.11-31.84-86.99-34.77-182.01-38.07-273.28-62.35 138.6-89.31 290.43-101.23 441.15-36.08-93.86-99.3-186.85-195.96-226.91 31.811 85.41 46.88 175.84 58.069 265.95-39.089-100.87-74.409-207.6-143.88-293.19-106.15-58.5-225.38-99.951-347.8-98.261-2.22-0.12-3.14 0.81062-1.26 2.4406 77.48 66.63 137.23 152.68 177.74 246.14-1.429-1.9-3.189-3.4894-4.9-5.1094-63.14-87.99-133.54-173.4-223.04-235.87-5.97-4.12-12.04-8.8103-19.5-9.5203-86.51-20.48-177.19-7.0794-261.37 17.641-51.361 15.44-101.86 34.15-151.27 54.83 118.61 38.12 228.75 104.94 313.04 197.07-118.06-67.04-243.79-133.61-382.68-138.35-10.471-3.42-17.831 6.2806-26.641 9.8906-110.27 63.96-215.18 145.71-282.42 255.47 68.47 1.55 139.24 9.97 203.71 31-92.94-8.93-186.92 8.3803-274.43 39.32-89.64 121.28-166.07 263.04-168.1 417.49 98.04-6.16 195.1-25.41 288.81-54.62 53.65-111.33 118.87-217.03 193.66-315.42 1.68-0.81 3.911-8.8794 5.26-3.9094-0.249 0.51-0.76 1.5203-1.01 2.0203-53.44 90.21-100.54 185.34-131.03 285.97 59.411 16.92 122.82 4.2412 179.67-16.069 107.57-151.53 238.64-284.79 375.48-409.62-3.83 6.64-9.339 12.13-13.259 18.7-103.73 131.11-200.58 269.69-268.76 422.95 48.99 41.87 113.62 60.719 176.75 66.959-20.49 26.35-41.62 52.621-59.02 81.041 100.54-17.53 202.63-25.28 304.57-26.97-0.21 0.39-0.63 1.1803-0.839 1.5703-1.34-0.79-2.291-0.7403-2.841 0.1297-127.28 14.84-254.91 41.25-371.57 95.6-86.51 126.62-137.93 274.37-164.33 424.69 88.42-78.76 192.36-142.71 307.13-174.89-5.92 7.1-14.82 11.08-21.12 17.9-6.06 4.4-11.56 9.6906-18.269 13.241-96.82 63.32-189.22 138.15-255.33 234.2-11.06 159.3 26.39 318.42 88.77 464.49 31.38-80.51 71.901-163.41 143.06-216.69-62.531 84.69-99.991 186.17-113.86 290.16-1.32 6.73-2.159 13.86 1.01 20.3 35.9 108.52 87.07 215.46 170.43 295.67 36.57 34.6 79 63.3 125.71 82.32 1.49 0.84 2.94-0.091 3.78-1.3406 26.649-37.15 53.16-74.8 72.8-116.23 27.16-54.45 42.51-117.54 28.89-177.9-37.75-136.71-119.64-254.82-194.97-372.97-1.66-2.3-2.651-4.8006-2.971-7.4906 2.08 1.71 4.071 3.55 6.151 5.3 75.94 94.73 154.69 187.92 232.87 281.06 39.96-27.98 66.659-72.981 73.93-121.01-23.891-198.67-99.45-385.27-169.91-570.95 5.65 6.08 7.941 15.211 13.141 21.831 8.449 15.12 15.539 30.96 23.829 46.18 62.92 131.47 127.54 262.36 191.61 393.23 38.05-5.72 70.801-31.309 98.21-57.509 34.32-35.5 63.711-75.75 89.06-117.97-53.949-206.65-124.89-408.4-200.87-607.86 90.21 155.28 176.71 313.33 262.98 471.04 3.731 5.81 5.521 12.449 6.741 19.209 7.11 29.88 30.161 54.951 59.19 64.881 74.491 25.17 156.06-4.0106 218.05-46.841 3.889 22.87 6.409 46.09 6.049 69.33-14.76 2.69-33.37 7.43-36.87 24.6-4.25 27.4 14.63 50.381 26.51 73.291 12.06 36.87 15.7 75.86 17.3 114.42-18.31 1.95-43.48 7.39-44.84 30.35 0.471 24.59 15.38 45.639 28.14 65.569 9.57 29.51 16.28 60.471 16.67 91.581-20.69 7.72-45.12 16.069-54.92 37.839-7.12 19.09 4.8 37.171 13.92 52.911 16.72 41.93 23.31 87.04 29.17 131.55-17.65 7.72-39.9 14.9-46.26 35.25-6.18 26.75 17.14 45.44 24.52 68.73 15.09 41.86 22.311 86.12 27.611 130.15-17.251 2.39-36.271 4.1291-49.782 16.339-15.169 13.26-12.469 36.06-6.579 53.27 7.3 22.26 21.01 41.49 32.23 61.78 15.18 45.99 20.841 94.561 23.04 142.76-25.849 0.94-56.631 15.48-58.591 44.4-1.24 39.12 20.74 73.56 38.851 106.55 10.549 37.94 19.32 76.96 20.731 116.4-32.311 12.72-69.971 32.019-77.391 69.339-6.669 35.98 20.989 63.211 30.409 95.491 15.96 46.86 27.431 95.3 35.291 144.13-25.87 17.15-55.249 35.95-63.96 67.88-9.62 38.47 10.86 75.491 30.8 106.96 6.511 21.57 10.92 43.8 16.14 65.77-14.83-13.85-27.69-30.971-45.53-41.491 8.97 46.24 20.85 93.75 16.77 140.63-15.31-30.51-43.551-54.469-76.36-64.009 18.96 33.58 30.68 70.929 36.02 109.09-39.86-60.21-92.34-116.28-161.93-141.18 38.35 63.5 56.91 136.48 69.01 209.05-42.7-28.52-95.22-46.169-146.13-42.409 65.66 34.49 123.15 84.79 167.95 143.4-66.12-15.56-143.55 7.5197-181.64 65.03 60.6-10.66 123.03-15.43 183.88-4.1-33.93 17.31-68.57 35.3-100.17 57.07 50.31-21.28 99.511-45.871 151.85-62.111 53.64-17.93 109.7-28.88 166.22-31.6 102.87 10.18 185.93 76.33 273.88 123.82-54.02-38.98-106.86-81.01-166.66-111.2 13.08-18.99 41.18-15.61 61.12-12.27 20.049 0.98 38.65 14.931 58.76 9.3406 37.64-3.87 61.949 31.3 77.18 60.7 105.48-62.77 235.83-65.119 353.62-78.659-25.37 0.78-50.611-1.7709-75.96-0.9609-20.111-2.17-47.791-1.4291-68.06-0.039-7.89-0.94-16.84 1.71-23.86 0.45 41.391-45.29 93.33-79.111 147.18-107.71-66.85-21.35-141.59 7.42-184.59 61 0.35-72.28 14.27-148.76 44.45-216.51-45.75 30.95-75.78 80.109-92.11 131.99-11.22-37.58-3.76-77.15 2.18-114.98-16.44 5.45-32.42 16.83-44.08 27.3 2.13-55.08 7.38-110.34 17.71-164.55 18.36-25.78 35.52-54.109 39.07-86.239 2.68-26.46-7.58-53.541-27.1-71.541-20.79-21.41-49.07-32.3-75.92-43.63 1.65-40.53 6.781-81.08 16.01-120.6 15.531-29.83 30.85-60.661 35.83-94.311 1.57-17.17 0.279-36.159-11.661-49.709-14.729-16.56-37.889-21.59-58.929-23.77 7.77-51.02 15.069-102.81 33.829-151.19 12.731-21.61 23.38-48.681 12.2-73.191-13.969-30.56-47.289-43.23-76.269-55.18 6.68-54.68 14.53-110.15 35.13-161.59 10.86-16.43 19.25-37.479 10.8-56.909-14.28-30.09-48.19-42.051-77.479-52.711-3.431-38.67-1.211-78.139 6.918-116.11 12.6-26.29 31.341-54.56 22.711-85.12-8.54-22.56-35.38-27.67-56.72-29.4 1.24-29.43 4.59-59.129 11.75-87.809 3.88-34.87 38.139-58.99 35.91-95.42-2.271-25.63-31.411-33.06-52.851-34.48 6.091-37.75 11.001-76.34 26.241-111.75 8.44-13.57 17.35-29.92 10.67-46.27-9.47-20.98-32.74-27.95-52.08-36.43 3.58-30.38 6.97-61.29 15.01-90.73 16.29 31.71 35.09 62.55 59.33 88.88 19.44 20.25 42.32 40.81 70.29 47.05 83.73-123.55 169.26-245.97 252.49-369.81 10.449-15.69 22.149-30.559 33.049-45.959 3.731-3.03 8.911-12.51 11.741-13.25-98.38 174.28-201.04 349.42-256.79 543.02-1.631 48.3 18.09 98.82 53.67 130.73 92.25-83.26 184.53-166.8 275.22-251.66 2.22-1.1 4.39-2.3807 6.21-4.0907 0.08 0.49 0.251 1.4694 0.331 1.9594-95.94 112.16-199.8 222.41-259.24 359.52-34 102.41 9.85 208.73 58.31 298.56 84.68-20.6 159.04-73.361 217.76-136.58 57.28-62.2 103-134.38 140.1-210.16 5.99-107.39-14.91-217.09-64.45-313.01 61.94 60.75 87.52 147.77 105.91 230.01 84.7-136.22 146.09-289.23 161.76-449.74-37.849-78.14-93.509-146.21-154.5-207.39 30 12.33 60.89 22.72 92.84 28.75 32.02 26.43 59.55 58.989 87.15 89.089 0.41-27.88-2.29-55.669-3.09-83.489 6.751-2.63 17.749 0.55 22.269-5.15 20.711-169.09 6.251-340.08-15.529-508.34 0.4-6.68-0.709-13.389-0.389-20.039 54.389 179.58 101.89 362.61 117.62 550.12 39.4 49.52 92.151 91.8 154.11 109.07 27.27-103.93 33.66-212.96 36.75-319.17 18.17 126.13 16.69 254.58 7.339 381.44 69.2 74.5 146.53 142.17 231.83 197.78 81.152-134.71 88.71-299.93 72.96-452.48-61.57-74.19-139.13-136.66-225.83-178.61 70.19 16.24 136.74 45.189 200.13 78.889-3.91-139.23-58.84-271.5-129.78-389.33-130.4-72.8-286.03-79.761-430.39-83.241 127.04-35.4 262.1-37.669 390.69-9.039-56.79-73.79-117.62-146.08-191.76-203.23-45.811-34.76-97.38-63.421-153.21-77.991-118.43 6.15-232.8 44.701-340.8 91.091-3.14 0.64-6.09 1.89-8.93 3.3-1.54-1.95 1.809-2.41 2.889-3.5 88.5-59.19 187.95-104.75 293.79-120.91 0.68-2.96-3.691-2.9003-5.391-4.4203-92.289-54.41-198.8-80.439-304.55-90.339 13.8-6.64 27.66-13.26 41.3-20.28-142-114.72-284.63-229.05-424.05-346.98 183.13 109.21 368.88 215.16 562.94 303.8 26.76-10.17 53.01-22.07 78.37-35.4 51.04-27.29 105.57-61.72 127.29-118.13-118.43-85.76-235.88-173.02-354.62-258.26-15.671-11.15-31.082-22.79-46.031-34.95-2.131-4.12-14.54-10.35-11.53-11.57 168.84 101.62 338.66 207.3 528.21 265.99 47.951 2.08 97.311-15.09 131.65-49.17 3.629-2.33-0.471-5.5203-2.041-7.5703-77.23-91.74-154.07-183.87-232.3-274.75-0.83-1.82-1.71-3.6997-3.259-4.9797 0.149-0.3 0.449-0.88969 0.6-1.1797 108.68 97.86 213.99 206.57 349.76 267.12 102.19 33.65 208.06-8.3394 298.97-54.409-17.74-90.19-71.049-170.01-137.43-232.14-56.68-52.46-121.51-95.839-190-131.21-108.51-7.3-219.75 11.45-317.55 59.9 64.34-60.57 152.82-86.37 237.75-102.03-128.57-86.18-275.55-148.76-430.03-168.88-2.335-0.75-4.613-1.057-6.848-1.0266-9.676 0.13203-18.477 6.6016-27.032 10.827-96.6 48.73-178.86 121.16-252.92 199.08-5.951 4.67-10.909 10.46-16.16 15.85-8.049 5.31-14.23 13.18-21.88 19.1 50.92-107.76 133.32-199.18 225.81-272.06-4.648-0.04781-9.297-0.06902-13.947-0.06562zm-2169.3 676.39c0.04-0.0008 0.07 0.0008 0.108 0-0.171 0.005-0.338 0.0167-0.508 0.025 0.134-0.007 0.266-0.0204 0.4-0.025zm1424.6 185.62c79.69 56.45 159.65 113.18 244.86 161.21-15.9 10.55-31.911 21.09-46.931 32.93-1.529 1.73-3.637-0.3097-4.707-1.3797-67.9-60.6-132.4-125.15-193.22-192.76zm-771.42 138.55c0.896 0.052-2.427 3.5922-2.867 4.4078-53.36 65.36-88.96 143.22-114.27 223.22-22.54-0.37-45.117 1.1891-67.467 4.1391 50.92-84.45 105.18-170.85 184.37-231.73 0.1-0.029 0.177-0.041 0.237-0.038zm1221.7 50.623c0.465 0.036 0.542 0.3138-0.433 1.0938-51.24 33.14-98.331 72.301-147.06 108.74 24.43-31.82 50.5-62.851 77.991-92.141 21.74-7.31 45.309-10.949 67.609-17.339 0.575-0.185 1.429-0.3908 1.894-0.3547zm743.07 293.04c-1.43 0.01-2.859 0.02-4.287 0.041 1.428-0.021 2.856-0.035 4.287-0.042zm-1116.5 3105.3c5.236 0.05 5.687 9.7987 7.179 14.536-15.5-3.07-31.409 4.5797-45.44-4.7703 12.6-3.14 25.38-5.6506 37.74-9.7406 0.179-0.019 0.352-0.027 0.521-0.025z" fill="#5e8c2f"/>
<path id="path6" d="m12339 22.844c-144.15 0.10513-289.31 24.932-422.16 81.836-7.92 2.34-14.401 7.56-17.711 15.3-69.9 102.86-116.01 219.69-152.34 338 0.32 0.51 0.969 1.54 1.289 2.05 49.28-115.41 103.87-229.33 174.98-333.08 1.19-2.31 2.989-4.6403 5.539-5.5703 119.33-48.4 248.24-74.089 376.69-75.909-100.81 75.12-169.89 183.47-227.21 293.45 14.95-12.57 28.751-26.561 43.821-38.961 2.73-1.92 1.72 1.0509 1.5 2.8609 9.51-7.98 17.14-17.91 25.62-26.95-8.05 5.31-14.23 13.18-21.88 19.1 50.92-107.76 133.32-199.18 225.81-272.06-4.648-0.04781-9.297-0.06902-13.947-0.06563zm106.13 27.27c-9.678 0.13203-18.478 6.6016-27.033 10.827-96.6 48.73-178.86 121.16-252.92 199.08 86.62-74.41 176.14-148.84 281.24-195.78 134.77 23.92 268.8 71.23 377.87 155.83-79.65 17.62-154.38 57.379-212.99 114.06 105.51-35.74 218.1-54.2 329.46-42.68 13.35-0.05 23.749 9.3494 35.329 14.609 84.11 44.88 164.7 103.33 214.99 186.02 22.04 35.64 37.641 75.021 47.611 115.66 0.19 1.26 0.369 2.5491 0.289 3.8391-71.59 48.34-166.36 71.73-248.76 37.38-132.64-71.15-247.89-169.18-363.11-264.9 2.59 8.83 8.53 16.341 10.9 25.191-3.98 0.06 0.68 3.4403 1.9 4.7203 0.15-0.3 0.45-0.88969 0.6-1.1797 108.68 97.86 213.99 206.57 349.76 267.12 102.19 33.65 208.06-8.3394 298.97-54.409-17.74-90.19-71.049-170.01-137.43-232.14-56.68-52.46-121.51-95.839-190-131.21-108.51-7.3-219.75 11.45-317.55 59.9 64.34-60.57 152.82-86.37 237.75-102.03-128.57-86.18-275.55-148.76-430.03-168.88-2.334-0.75-4.613-1.057-6.847-1.0266zm-620 115.8c-113.58 49.7-221.1 119.19-300.17 215.95-38.24 114.52-34.29 237.09-36.38 356.11-31.84-86.99-34.77-182.01-38.07-273.28-62.35 138.6-89.31 290.43-101.23 441.15-36.08-93.86-99.299-186.85-195.96-226.91 31.81 85.41 46.878 175.84 58.068 265.95-39.09-100.87-74.409-207.6-143.88-293.19-106.15-58.5-225.38-99.951-347.8-98.261-2.22-0.12-3.14 0.81062-1.26 2.4406 77.48 66.63 137.23 152.68 177.74 246.14 4.84 7.96 10.731 15.211 16.991 22.111-36.26-92.31-82.59-186.01-163.05-247.69 108.6-1.64 211.06 42.06 308.92 84.7 69.04 94.01 111.24 204.42 159.11 310.07-8.6-84.96-13.709-171.75-42.089-253.03 74.57 39.24 127.67 110.44 158.3 187.68 29.88 73.78 43.859 152.76 55.979 231.08-109.65-83.25-225.1-160.64-351.38-216.67-146.1-65.88-307.61-103.56-468.35-88.5-37.8-42.06-73.771-86.35-117.52-122.63-48.49-42.06-106.96-72.499-169.2-88.189 114.76-51.56 244.99-82.621 369.88-52.541 93.42 59.71 165.98 145.2 237.51 228.5-63.14-87.99-133.54-173.4-223.04-235.87-5.97-4.12-12.04-8.8103-19.5-9.5203-86.51-20.48-177.19-7.0794-261.37 17.641-51.36 15.44-101.86 34.15-151.27 54.83 118.61 38.12 228.75 104.94 313.04 197.07-118.06-67.04-243.79-133.61-382.68-138.35-10.47-3.42-17.831 6.2806-26.641 9.8906-110.27 63.96-215.18 145.71-282.42 255.47 68.47 1.55 139.24 9.97 203.71 31-92.94-8.93-186.92 8.3803-274.43 39.32-89.64 121.28-166.07 263.04-168.1 417.49 98.04-6.16 195.1-25.41 288.81-54.62 53.65-111.33 118.87-217.03 193.66-315.42 1.68-0.81 3.911-8.8794 5.261-3.9094 5.7-11.38 10.219-23.36 16.339-34.52 83.67-39.61 168.71-77.03 257.14-104.83 110.8-35.08 228.34-53.46 344.37-39.5 129.86 13.98 252.87 65.609 363.3 133.69 78.35 48.11 151.45 104.33 220.92 164.45-8.44 4.4-17.798 8.6906-27.568 7.2406-175.6-24.33-356.33-34.58-530.71 3.45 37.73-87.49 82.12-171.92 127.22-255.79-97.3 96.23-182.28 204.44-260.25 316.74-6.04 7.94-9.569 18.289-19.109 22.909-60.03 38.09-112.55 86.861-159.41 140.04-58.05-9.1-121.3-18.66-168.06-56.95 68.63-146.03 157.38-281.31 245.67-415.93-103.73 131.11-200.58 269.69-268.76 422.95 48.99 41.87 113.62 60.719 176.75 66.959-20.49 26.35-41.621 52.621-59.021 81.041 100.54-17.53 202.63-25.28 304.57-26.97-0.21 0.39-0.629 1.1803-0.839 1.5703 13.55-2.08 41.1-8.07 55.95-12.25-97.8-3.73-197.14-6.1406-293.37 14.859 44.65-92.27 123.02-164.13 207.62-219.62 133.96-12.72 267.86 8.4103 401.01 21.62-60.31-59.53-147.52-82.08-230.28-83.58 144.56-37.21 295.92-23.58 442.59-7.6203-183.42 72.61-361.66 169.31-502.91 309.37-97.66 94.75-175.79 209.12-230.31 333.7-93.62 213.79-118.04 449.73-133.18 680.14 22.6-189.45 46.261-380.31 104.64-562.69 29.92-92.18 69.24-181.69 121.58-263.43 63.03-99.71 145.37-186.53 239.07-257.92 138.82-106.01 299.34-179.32 463.61-236.45 19.84-13.58 33.411 15.591 46.011 25.191-138.97 35.28-274.93 86.049-398.54 159.34-153.04 89.41-283.06 218.96-368.21 374.79-44.61 80.44-78.519 166.54-104.23 254.77-43.12 145.41-64.042 295.96-90.082 445.03 0.3 0.57 0.911 1.7097 1.211 2.2797 48.16-233.34 90.491-473.35 203.22-685.95 43.78-81.8 99.12-157.63 165.4-222.62 166.1-162.71 388.79-251.72 611.25-306.12 37.54 63.62 63.498 137.29 59.768 211.95-23.69 78.07-71.079 149.32-136.43 198.69-32.05-80.26-83.04-152.06-144.78-212.2-21.91-21.08-42.41-43.621-64.3-64.641 54.25 131.07 110.7 262.65 138.65 402.42 1.1 6.75 3.78 14.361-0.43 20.641-39.86 88.3-83.28 176.18-143.07 252.89-80.46-161.17-178.64-312.68-279.95-461.34 65.04 207.78 129.41 416.09 180.26 627.93 1.44 6.19-3.059 11.14-5.489 16.33-20.46 37.75-43.44 75.36-76.3 103.63-19.17 16.06-43.851 30.671-69.511 28.781-65.35-117.65-128.26-236.92-194.14-354.32 62.92 131.47 127.54 262.36 191.61 393.23 38.05-5.72 70.801-31.309 98.211-57.509 34.32-35.5 63.709-75.75 89.059-117.97-53.95-206.65-124.89-408.4-200.87-607.86 90.21 155.28 176.71 313.33 262.98 471.04 3.73 5.81 5.521 12.449 6.741 19.209 7.11 29.88 30.161 54.951 59.191 64.881 74.49 25.17 156.06-4.0106 218.05-46.841 3.89 22.87 6.41 46.09 6.05 69.33-14.76 2.69-33.371 7.43-36.871 24.6-4.25 27.4 14.63 50.381 26.51 73.291 12.06 36.87 15.7 75.86 17.3 114.42-18.31 1.95-43.479 7.39-44.839 30.35 0.47 24.59 15.379 45.639 28.139 65.569 9.57 29.51 16.28 60.471 16.67 91.581-20.69 7.72-45.12 16.069-54.92 37.839-7.12 19.09 4.8 37.171 13.92 52.911 16.72 41.93 23.31 87.04 29.17 131.55-17.65 7.72-39.901 14.9-46.261 35.25-6.18 26.75 17.141 45.44 24.521 68.73 15.09 41.86 22.311 86.12 27.611 130.15-17.25 2.39-36.272 4.1291-49.782 16.339-15.17 13.26-12.469 36.06-6.579 53.27 7.3 22.26 21.009 41.49 32.229 61.78 15.18 45.99 20.841 94.561 23.041 142.76-25.85 0.94-56.631 15.48-58.591 44.4-1.24 39.12 20.74 73.56 38.85 106.55 10.55 37.94 19.322 76.96 20.732 116.4-32.31 12.72-69.971 32.019-77.391 69.339-6.67 35.98 20.989 63.211 30.409 95.491 15.96 46.86 27.431 95.3 35.291 144.13-25.87 17.15-55.249 35.95-63.959 67.88-9.62 38.47 10.86 75.491 30.8 106.96 6.51 21.57 10.919 43.8 16.139 65.77-14.83-13.85-27.69-30.971-45.53-41.491 8.97 46.24 20.85 93.75 16.77 140.63-15.31-30.51-43.551-54.469-76.361-64.009 18.96 33.58 30.681 70.929 36.021 109.09-39.86-60.21-92.34-116.28-161.93-141.18 38.35 63.5 56.909 136.48 69.009 209.05-42.7-28.52-95.219-46.169-146.13-42.409 65.66 34.49 123.15 84.79 167.95 143.4-66.12-15.56-143.55 7.5197-181.64 65.03 60.6-10.66 123.03-15.43 183.88-4.1-33.93 17.31-68.57 35.3-100.17 57.07 50.31-21.28 99.51-45.871 151.85-62.111 53.64-17.93 109.7-28.88 166.22-31.6 102.87 10.18 185.93 76.33 273.88 123.82-54.02-38.98-106.86-81.01-166.66-111.2 13.08-18.99 41.178-15.61 61.118-12.27 20.05 0.98 38.651 14.931 58.761 9.3406 37.64-3.87 61.95 31.3 77.18 60.7 105.48-62.77 235.83-65.119 353.62-78.659-25.37 0.78-50.611-1.7709-75.961-0.9609-22.7-0.08-45.379 0.0009-68.059-0.039-7.89-0.94-16.839 1.71-23.859 0.45 41.39-45.29 93.329-79.111 147.18-107.71-66.85-21.35-141.59 7.42-184.59 61 0.35-72.28 14.27-148.76 44.45-216.51-45.75 30.95-75.78 80.109-92.11 131.99-11.22-37.58-3.76-77.15 2.18-114.98-16.44 5.45-32.42 16.83-44.08 27.3 2.13-55.08 7.38-110.34 17.71-164.55 18.36-25.78 35.52-54.109 39.07-86.239 2.68-26.46-7.58-53.541-27.1-71.541-20.79-21.41-49.07-32.3-75.92-43.63 1.65-40.53 6.781-81.08 16.011-120.6 15.53-29.83 30.849-60.661 35.829-94.311 1.57-17.17 0.279-36.159-11.661-49.709-14.73-16.56-37.889-21.59-58.929-23.77 7.77-51.02 15.069-102.81 33.829-151.19 12.73-21.61 23.38-48.681 12.2-73.191-13.97-30.56-47.288-43.23-76.268-55.18 6.68-54.68 14.529-110.15 35.129-161.59 10.86-16.43 19.25-37.479 10.8-56.909-14.28-30.09-48.189-42.051-77.479-52.711-3.43-38.67-1.212-78.139 6.918-116.11 12.6-26.29 31.341-54.56 22.711-85.12-8.54-22.56-35.38-27.67-56.72-29.4 1.24-29.43 4.59-59.129 11.75-87.809 3.88-34.87 38.139-58.99 35.909-95.42-2.27-25.63-31.41-33.06-52.85-34.48 6.09-37.75 11.001-76.34 26.241-111.75 8.44-13.57 17.35-29.92 10.67-46.27-9.47-20.98-32.739-27.95-52.079-36.43 3.58-30.38 6.969-61.29 15.009-90.73 16.29 31.71 35.09 62.55 59.33 88.88 19.44 20.25 42.32 40.81 70.29 47.05 83.73-123.55 169.26-245.97 252.49-369.81-84.19 109.66-166.03 221.4-249.64 331.56-21.94-2.13-42.119-14.921-57.579-30.361-34.56-36.8-54.42-84.689-69.55-132.06 83.54-205.35 180.64-404.93 277.8-604.09-124.04 134.27-243.58 273.61-349.02 423.09-47.42-86.26-78.2-180.81-102.57-275.85 49.04-140.75 128.38-268.04 204.59-395.23-49.53 36.98-99.762 73.619-144.73 116.24-40.93 39.25-75.959 84.371-105.34 132.79-9.93-9.9-19.66-20.48-27.69-31.97 40.34-43.93 62.05-102.01 70.59-160.33-3.95-72.88-19.3-145.76-48.99-212.64 197.25 80.28 390.4 188.8 527.77 355.19 78.11 93.28 133.52 203.98 169.01 319.98 63.59 209.52 71.601 430.11 85.991 647.04 0.05 3.27 0.02 21.439 1.77 10.339-8.05-237.29-6.82-481.69-90.6-707.53-40.41-111.18-101.14-214.95-178.7-304.3-141.14-162.26-331.05-273.95-528.97-353.04-9.49-2.77-17.26-9.0112-24.07-15.931-96.23-86.56-200.4-165.24-314.95-226.04-155.98-83.56-335.96-128.63-513.06-105.79-204.16 22.41-386.66 123.46-564.25 219.19 46.85-18.91 91.35-45.33 138.08-65.38-82.46 101.13-164.26 205.76-214.74 327.19-1.57 2.89-2.0294 7.5603-5.8594 8.3203-81.03 23.73-163.73 44.659-248.4 48.809-7.14 0.08-0.88-12.04-3-16.18-0.57-135.94 71.9-257.1 147.55-364.61 94.81-38.37 197.98-51.981 299.68-52.941-62.99-30.99-134.39-49.52-204.72-38.05 56.51-96.66 149.2-165.78 242.5-224.52 14.12-7.51 26.942-21.389 44.582-16.769 139.93 6.04 264.83 75.299 389.68 131.29-137.45 13.43-269.74 60.92-390.06 127.67-86.85 47.24-168.62 103.09-250.52 158.27-0.96 0.8-2.97 1.52-1.55 2.95 136.76-84.92 276.8-167.56 429.38-220.9 100-34.32 205.73-54.62 311.74-50.57 127.32 3.52 251.92 39.421 366.81 93.191 136.17 63.65 260.11 150.33 377.37 243.66 204.83 98.83 404.02 222.55 549.63 400.33 76.81 93.36 135.17 201.37 172.88 316.14 77.38 238.33 73.54 492.94 68.77 740.46 0.3 1.5 0.78 3.0009 1.21 4.5609 13.51-235.22 24.19-476.74-43.73-705.3-55.32-192.23-168.44-365.7-316.26-499.73-99.32-91.35-212.03-167.2-330.29-231.77 156.06-0.17 318.29 2.0488 465.56 59.769-82.52-8.49-172.39 3.8103-239.95 54.92 131.48 3.51 264.68-1.6697 394.25 25.42 6.66 0.24 10.521 6.1406 15.191 9.9406 70.31 64.2 131.96 142.35 160.5 234.34-91.95-32.94-190.33-42.36-287.01-49.38 15.52 5.14 30.5 13.16 46.7 15.57 101.63 14.05 202.54 34.17 300.99 63.08-49.75-109.81-122.18-211.73-218.95-284.96-116.43-34.32-239.57-19.141-359.01-17.561 20.38-8.41 41.34-15.749 62.76-20.939 220.47 8.13 448.45 47.079 637.37 167.46 149.78 94.1 260.63 238.68 341.03 394.14 0.75 1.49 1.059 3.0891 0.929 4.7891-10.88 97.98-23.799 196.02-47.089 291.93-50.88-13.75-93.421-47.79-131.66-82.75 6.8-201.87-59.198-396.26-130.82-582.2 0.7 11.03-1.71 22.491 3 32.831 54.39 179.58 101.89 362.61 117.62 550.12 39.4 49.52 92.151 91.8 154.11 109.07 27.27-103.93 33.66-212.96 36.75-319.17 18.17 126.13 16.689 254.58 7.339 381.44 69.2 74.5 146.53 142.17 231.83 197.78 81.15-134.71 88.709-299.93 72.959-452.48-61.57-74.19-139.13-136.66-225.83-178.61 70.19 16.24 136.74 45.189 200.13 78.889-3.91-139.23-58.84-271.5-129.78-389.33-130.4-72.8-286.03-79.761-430.39-83.241 127.04-35.4 262.1-37.669 390.69-9.0391-56.79-73.79-117.62-146.08-191.76-203.23-45.81-34.76-97.379-63.421-153.21-77.991-118.43 6.15-232.8 44.701-340.8 91.091 109.3-36.15 220.77-72.591 336.8-76.641 127.73 38.03 230.26 132.77 306.93 238.76-34.37-8.98-69.481-15.619-105.07-16.869-91.81-3.23-181.1 23.72-266.78 53.6 145.18 17.5 299.13 20.019 430.86 91.319 12.45 4.04 16.118 17.56 22.418 27.57 54.31 100.77 100.8 210.23 104.06 326.35 2.89 6.68-0.471 4.43-2.761 3.2-57.97-44.63-131.08-67.629-203.61-71.009 90.8 53.17 176.31 118.21 241.76 201.31 12.33 136.88 10.511 287.88-68.559 406.57-1.3 3.08-3.95 5.5906-7.05 1.7406-74.4-47.46-138.51-109.73-198.79-173.24 18.45-112.5 6.532-228.03-6.668-339.66 65.77 131.8 119.26 269.18 173.76 405.89 0.2-1.02 0.46-2 0.78-2.95-7.66-16.8-12.601-34.74-19.271-51.95-1.18-2.3 3.462 2.0803 2.382-0.1797-26.84-75.46-50.01-152.15-76.3-227.79-48.88-143.99-107.27-287.21-199.73-409.27-93.08-125.58-223.66-221.44-368.98-278.02-101.44-40.66-209.09-64.17-317.31-77.7-16.64-2.39-33.811-2.4603-49.761-8.2703-99.72-29.98-205.08-43.94-307.85-49.62 47.49-53.13 102.38-102.83 164.54-139.43 59.55-34.43 128.37-54.369 197.42-51.409-68.39 56.38-120.92 128.7-173.5 199.34 100.17-67.24 197.6-141.37 309.6-188.26 111.59 13.88 227.26 29.3 326.56 85.8-0.06 0.4-0.19 1.1891-0.26 1.5891-104.76 11.42-197.48 68.551-279.57 131.08 8.5-2.32 16.83-5.28 25.02-8.55-1.54-1.95 1.809-2.41 2.889-3.5 88.5-59.19 187.95-104.75 293.79-120.91 0.68-2.96-3.691-2.9003-5.391-4.4203-92.29-54.41-198.8-80.439-304.55-90.339 13.8-6.64 27.66-13.26 41.3-20.28-142-114.72-284.63-229.05-424.05-346.98 183.13 109.21 368.88 215.16 562.94 303.8 26.76-10.17 53.01-22.07 78.37-35.4 51.04-27.29 105.57-61.72 127.29-118.13-118.43-85.76-235.88-173.02-354.62-258.26 104.17 86.06 211.56 168.72 315.8 254.75-2.14 17.32-12.43 32.65-23.15 45.97-36.97 39.57-89.131 59.039-139.37 75.809-3.48 1.93-7.451 1.4403-10.961 0.27032-199.52-87.39-393.28-187.21-586.31-287.83 126.69 124 256.54 245.91 399.02 351.96 0.64 1.57 7.839 3.75 4.939 6.15-73.83 36.56-152.13 63.701-231.88 84.041 25.42-29.83 57.819-54.421 86.679-80.211-79.86-9.51-160.63 12.521-229.87 51.841-100.13-48.24-193.48-109.04-286.78-169.1 41.04-101.53 97.021-198.84 172.67-278.79 68.34-71.69 155.43-124.5 249.76-154.22 131.26-42.08 270.03-49.59 406.54-59.53 11.86 0.5-1.091-2.6603-3.471-1.3703-126.72 4.05-255.8 3.0209-378.79 38.161-112.51 30.98-215.3 94.96-293.25 181.75-83.6 91.39-142.68 202.21-188.44 316.56-34.82 88.26-62.67 179.26-84.31 271.62-9.65-3.15-18.319-8.9794-27.629-13.009 32.61-111.15 71.599-220.74 120.86-325.69 50.46-105.54 111.99-207.64 195.63-290.37 90.15-90.9 209.72-149.88 335.52-171.48 122.12-22.4 247.03-18.239 370.45-12.909 2.61 0.1 9.51-2.6603-0.37-1.3703-102.95-8.68-206.55-19.821-309.8-9.4406-105.27 8.98-209.19 41.99-297.58 100.42-108.33 70.69-191.93 173.41-256.9 284.1-76.21 129.45-129.72 270.8-173.93 413.93-4.35-2.97-11.04-5.4797-10.54-11.78-5.98-60.13-16.16-119.96-32.6-178.14-4.21-10.79-2.689-22.589-1.739-33.809 10.02-128.09 28.039-258.15 80.339-376.61 3.14-4.9 0.139 6.8391 0.479 7.2891-12.42 78.89-3.278 164.92 42.382 232.27 10.04-131.25 13.38-264.35 47.45-392.27 0.58-3.81 1.929-7.58 4.889-10.2 69.76-71.75 153.16-134.26 250.35-162.55-38.58 90.18-52.301 188.26-66.321 284.61 8.78-15.88 16.801-35.401 21.021-54.061 18.68-99.11 45.03-196.88 79.07-291.82zm818 253.04c15.66 35.3 31.401 70.69 51.041 104 36.61 63.29 88.189 116.5 144.88 162.08-17.75 31.29-56.69 47.91-91.45 37.45-207.21-57.08-391.34-171.85-577.54-275.43 10.06 10.29 22.98 17.39 32.95 27.72-1.24-0.17-2.43-0.31969-3.6-0.42969 9.36 7.89 19.379 15.08 29.729 21.68-2.13-4.12-14.539-10.35-11.529-11.57 168.84 101.62 338.66 207.3 528.21 265.99 47.95 2.08 97.31-15.09 131.65-49.17 3.63-2.33-0.471-5.5203-2.041-7.5703-77.23-91.74-154.07-183.87-232.3-274.75zm-1071.6 448.41c15.85 17.74 29.541 41.66 44.641 61.6 42.33 61.63 91.819 119.48 153.09 163.02 5.69 1.23 1.53 5.1103-0.61 6.5203-35.46 29.15-67.251 62.41-98.011 96.3-55.95-2.9-112.01-1.3506-168.03-1.9406-10.25-3.64-19.899-8.9797-29.439-14.13 25.57-105.84 56.249-210.86 98.359-311.37zm22.72 17.5c79.69 56.45 159.65 113.18 244.86 161.21-15.9 10.55-31.91 21.09-46.93 32.93-1.53 1.73-3.639-0.3097-4.709-1.3797-67.9-60.6-132.4-125.15-193.22-192.76zm-1050 16.25c-148.41 118.71-295.72 246.86-390.96 414.01-3.76 5.19-4.88 14.519-13.17 13.939-45.59 9.21-93.559 16.7-139.44 5.35-2.3904-0.03-2.9813-2.0294-2.2113-4.0094 28.71-91.41 67.51-179.19 106.75-266.46-53.44 90.21-100.54 185.34-131.03 285.97 59.41 16.92 122.82 4.2412 179.67-16.069 107.57-151.53 238.64-284.79 375.48-409.62 5.86-7.07 10.239-15.241 14.909-23.111zm278.59 122.3c0.896 0.052-2.427 3.5922-2.867 4.4078-53.36 65.36-88.961 143.22-114.27 223.22-22.54-0.37-45.118 1.1891-67.468 4.1391 50.92-84.45 105.18-170.85 184.37-231.73 0.1-0.029 0.178-0.041 0.238-0.038zm1221.7 50.623c0.465 0.036 0.542 0.3138-0.433 1.0938-51.24 33.14-98.331 72.301-147.06 108.74 24.43-31.82 50.501-62.851 77.991-92.141 21.74-7.31 45.309-10.949 67.609-17.339 0.575-0.185 1.429-0.3909 1.894-0.3547zm-1299.2 128.14c82.32 17.3 165.3 38.31 239.61 78.97 3.26 0.95 1.571 4.05-2.709 1.75-85.27-13.24-170.43-30.419-256.99-31.859 5.41-16.66 13.101-32.761 20.091-48.861zm1256.2 72.211c128.69 10.79 257.28 38.1 376.62 88.5 142.61 59.65 266.26 162.59 351.94 291.04-79.55-100.09-178.73-185.66-293.05-243.92-149.18-78.76-317.28-114.2-484.13-129.19 15.8-2.79 32.461-4.3297 48.621-6.4297zm-891.48 134.67c52.86 68.37 103.73 139.09 148.88 212.7 4.25 6.19 8.08 12.711 11.9 19.191 10.31 17.2 20.158 34.811 30.418 51.941 24.07-9.45 45.28-25.161 65.7-40.761 14.27 15.5 30.971 28.85 48.971 39.75 14.69-18.33 28.74-37.289 44.15-55.009 3.86-5.68 8.64-10.71 13.15-15.88 55.13-65.71 114.52-128.08 175.93-187.89-53.37 79.08-105.51 159.81-152.2 242.78-6.92 13.72-14.03 28.32-22.15 40.9-3.05 8.38-6.869 16.69-11.909 24.07-4.9 12.98-11.601 25.2-17.141 37.9-1.59 5.01-4.409 9.4903-6.209 14.42 7.91 38.6 19.87 76.449 29.28 114.61-83.26 18.93-164.82-31.94-214.5-95.33-0.13-7.62 5.681-14.161 7.411-21.491-34.87-132.95-92.782-258.27-151.68-381.9zm-445 79.6c-127.28 14.84-254.91 41.25-371.57 95.6-86.51 126.62-137.93 274.37-164.33 424.69 88.42-78.76 192.36-142.71 307.13-174.89-5.92 7.1-14.821 11.08-21.121 17.9 10.34-5.87 20.382-12.309 30.032-19.259-1.77-0.92-3.911-0.06-5.791 0.05 15.99-14 34-25.531 49.83-39.731-118.25 37.86-236.55 86.711-329.04 171.93 26.06-126.73 72.58-250.18 142.95-359.05 113.28-52.44 234.5-85.42 355.59-114.32 0.67-0.91 12.17-0.8703 6.32-2.9203zm1860.9 58.23c5.83 163.78 15.27 328.47-1.91 491.99-1.64 2.66-5.12 0.9703-7.6 0.9703-9.81-115.49-38.94-229.74-88.19-334.76-9.18-8.27-20.63-13.5-31.05-20.02-100.08-56.35-209.89-95.349-321.87-119.42 117.07 43.8 234.27 90.789 339.59 158.81 52.25 116.89 78.97 245.69 83.6 372.66-77.35-96.62-187.72-158.67-298.18-210.11 14.01 15.87 30.33 29.63 43.8 46.03-1.97-0.63-3.89-1.32-5.82-1.9 6.57 7.6 14.91 13.331 22.12 20.341-2.42-6.95-10.55-10.88-14.1-17.48 54.21 23.07 105.92 52.999 151.86 89.969-29.98-8.04-59.399-18.099-88.189-29.639-9.47-4.09-14.691-14.951-24.161-18.361 74.09 77.61 145.33 160.34 193.43 257.01 1.86 3.32 3.13 6.8891 2.7 10.839-21.81 135.75-67.93 269.54-148 382.31-19.96-77.93-60.249-151.33-118.93-206.8 39.59 106.85 59.76 222.42 47.9 336.26-35.39 75.92-79.4 149.53-140.46 207.74-46.73 45.18-104.5 78.53-166.64 97.42-2.59 0.28-6.231 3.7688-7.821 0.4188-49.28-69.78-73.52-163.21-40.7-245 68.44-137.07 165.41-256.88 258.04-377.95-8.55 3.77-16.419 8.8709-24.809 12.961 3.42-6.83-1.402-1.3203-4.232 1.6797 0.08 0.49 0.252 1.4694 0.332 1.9594-95.94 112.16-199.8 222.41-259.24 359.52-34 102.41 9.849 208.73 58.309 298.56 84.68-20.6 159.04-73.361 217.76-136.58 57.28-62.2 103-134.38 140.1-210.16 5.99-107.39-14.91-217.09-64.45-313.01 61.94 60.75 87.52 147.77 105.91 230.01 84.7-136.22 146.09-289.23 161.76-449.74-37.85-78.14-93.51-146.21-154.5-207.39 30 12.33 60.889 22.72 92.839 28.75 32.02 26.43 59.55 58.989 87.15 89.089 0.41-27.88-2.289-55.669-3.089-83.489 6.75-2.63 17.748 0.55 22.268-5.15 20.71-169.09 6.251-340.08-15.529-508.34zm-627.71 139.26c-33.99 62.42-68.99 124.56-102.95 187.04-3.33 5.99-5.43 13.031-10.1 18.141-32.28 61.03-62.781 123.56-94.661 184.57-1.66 6.47-5.52 15.09-9.6 20.23-24.62 55.4-51.928 110.67-75.818 166.85-4.84 7.67 4.149 14.46 4.989 22.12-39.81-6.54-78.07-24.621-107.16-52.761-38.54-36.01-61.159-85.47-75.579-135.42-1.43-6.33-5.56-14.34-0.25-20 27.68-42.06 32.698-96.37 17.218-143.83 10.29-0.33 20.22-3.2094 30.3-4.8094 21.57 69.8 46.922 138.96 82.682 202.88 19.17-23.87 36.418-49.671 55.868-73.141 3.98-6.69 9.112-12.769 13.932-18.859 41.44-54.41 82.218-109.45 124.62-163.06 3.47-6.2 8.69-12.481 13.6-18.091 43.28-57.91 87.861-115.3 132.91-171.86zm-651.15 138.93c40.19 52.64 96.59 97.13 163.45 107.65 12.12 40.2 14.501 84.79-1.329 124.33-23.58 60.79-82.831 101.53-145.12 114.86-39.61 8.35-85.291 8.47-120.66-12.05-22.37-10.63-40.94-30.919-48.15-54.789 1.89-5.2 5.742-10.32 9.932-13.92 34.47-48.2 63.229-100.6 90.509-152.92 2.31-6.99 5.921-13.939 9.941-20.189 12.96-30.76 28.379-61.85 41.429-92.97zm-850.23 40.12c-96.82 63.32-189.22 138.15-255.33 234.2-11.06 159.3 26.391 318.42 88.771 464.49 31.38-80.51 71.901-163.41 143.06-216.69-62.53 84.69-99.991 186.17-113.86 290.16-1.32 6.73-2.159 13.86 1.011 20.3 35.9 108.52 87.069 215.46 170.43 295.67 36.57 34.6 79 63.3 125.71 82.32 1.49 0.84 2.939-0.091 3.779-1.3406 26.65-37.15 53.16-74.8 72.8-116.23 27.16-54.45 42.511-117.54 28.891-177.9-37.75-136.71-119.64-254.82-194.97-372.97-1.66-2.3-2.651-4.8006-2.971-7.4906-6.29-6.68-18.428-10.1-26.868-17.73 73.95 130.87 151.1 261.85 197.38 405.65 18.17 86.58-20.969 175.76-81.679 236.28-2.39-0.43-4.642-1.3988-6.832-2.3688-47.64-21.66-91.279-52.131-127.21-90.231-64.18-68.96-102.1-157.55-128.15-246.91 5.11-114.87 44.89-225.89 99.45-326.26-66.14 46.76-117.36 113.72-148.75 188.25-1.68 1.98-2.69-3.4403-3.53-4.1703-60.18-119.68-83.4-255.02-83.85-388.1-0.43-4.03 0.23-8.1406 3.05-11.191 64.97-92.9 152.02-167.1 239.67-237.74zm181.43 35.85c69.63 199.46 148.66 398.91 170.2 610.8 7.6 38.01-15.39 80.11-52.87 91-29.32-54.29-64.92-105.76-109.63-148.56-34.72-34.36-75.041-62.44-115.66-89.27 75.94 94.73 154.69 187.92 232.87 281.06 39.96-27.98 66.659-72.981 73.929-121.01-23.89-198.67-99.449-385.27-169.91-570.95 5.65 6.08 7.941 15.211 13.141 21.831-5.48-13.27-11.851-26.461-19.091-38.741 0.26 1.88 0.6 3.78 0.88 5.7-8.76-13.45-14.75-28.619-23.86-41.859zm1518 82c-9.96 11.36-17.541 24.81-27.761 35.93-2.72 3.06 1.091-5.0694-1.459-1.7594-7.38 9.89-15.031 19.89-20.741 30.88 3.73-3.03 8.911-12.51 11.741-13.25-98.38 174.28-201.04 349.42-256.79 543.02-1.63 48.3 18.091 98.82 53.671 130.73 92.25-83.26 184.53-166.8 275.22-251.66-53.78 26.38-107.02 55.209-153.07 93.939-40.83 33.82-76.369 73.63-108.14 115.95-33.57-14.91-50.142-56.449-39.032-91.209 54.51-211.19 165.51-401.13 266.36-592.57zm-683.76 115.02c16.58 56.62 38.981 119.38 86.841 159.31-36.61 4.44-74.861 0.5903-110.54-9.0797-2.75-38.23-4.78-76.789-10.55-114.81 10.55-12.23 24.3-22.27 34.25-35.42zm-46.359 127.73c8.25 0.1209 14.695 6.5203 10.12 18.783 38.77 28.66 90.55 25.351 136.15 23.761 7.46 5.28 15.38 9.99 23.11 14.9 6.88 2.9 14.099 6.4397 21.029 9.8797 20.79 7.82 42.451 13.449 64.561 16.139-9.36 44.32-16.11 89.361-22.07 134.34-63.56 28.86-137.57 31.461-204.65 13.991-2.55-50.9-5.791-102.14-17.791-151.84-10.27-23.29-31.758-46.29-25.268-73.3 4.26-4.5375 9.859-6.7257 14.809-6.6531zm247.35 208.52c11.59 0.49 23.449 5.4997 31.259 14.18 11.24 14.81 5.001 34.52-2.509 49.57-16.65 51.43-22.05 105.55-31.33 158.54-66.73 28.34-143.17 31.341-213.1 13.761-4.37-51.11-6.12-103.19-19.79-153.04-10.79-20-25.771-39.969-25.271-63.709 0.71-16.91 38.93-23.63 29.5 0.02 14.97 12.83 36.05 18.56 55.55 21.88 55.99 8.33 113.45-0.13 166.85-17.95 11.54-1.51 6.101-15.52 8.841-23.25zm-231.53 192.96c5.85 8.47-0.211 27.89 2.889 39.88 22.65 15.95 50.851 21.231 77.991 23.261 54.51 3.76 109.78-4.4206 161.2-22.691 2.01-11.37 2.94-22.95 4.37-34.4 14.35-4.01 40.18-4.4794 41.41 16.091-0.75 25.73-17.28 46.83-28.33 68.97-12.34 50.62-16.311 102.83-19.141 154.72-0.11 3.39 0.791 11.071-5.589 9.5812-74.54 16.34-156.23 15.48-226.34-17.05-8.09-55.47-15.889-111.26-31.539-165.21-6.51-14.63-13.452-30.67-10.282-46.95 3.58-15.24 18.911-23.86 33.361-26.2zm-10.479 222.09c4.06 8.39 1.689 20.82 5.729 29.62 52.7 18.53 109.12 26.24 164.88 24.95 32-2.02 65.641-7.13 92.541-25.8 1.84-8.54-0.562-18.03 1.018-26.77 14.67-2.29 37.401-0.8906 41.321 17.259 4.25 26.84-11.36 51.301-21.23 75.091-8.9 59.97-5.52 120.94-1.52 181.17-83.85 19.75-174.78 17.839-254.67-16.391-9.35-61.25-17.719-122.95-35.209-182.54-7.67-17.86-18.601-35.48-18.691-55.5 0.63-13.07 14.572-19.389 25.832-21.089zm293.1 233.46c20.29 2.58 44.879 9.79 52.929 30.9 6.98 19.5-0.621 39.98-8.861 57.78-19.49 68.29-28.859 138.91-38.479 209.11-86.06 39.59-186.89 42.43-277.88 19-3.4-68.45-7.799-137.45-24.209-204.27-13.58-26.82-32.511-52.911-33.541-84.041 0.51-21.87 28.561-26.829 45.291-20.459 0.92 10.28 2.209 20.55 3.639 30.8 50.85 18.51 105.14 26.33 159.07 28.22 42.63-0.13 88.52-3.71 125.08-27.85 1.58-12.73-2.329-26.181-3.039-39.191zm26.95 274.31c23.65 1.4 50.709 14.959 55.789 40.119 6.9 30.73-12.02 57.63-17.13 86.72-17.5 73.88-25.73 149.48-36.15 224.57-90.69 45.14-198.74 48.91-295.39 21.85-3.7-80.57-8.098-161.8-26.018-240.71-15.28-32.04-36.181-64.39-35.191-101.22 1.62-18.09 21.63-25.231 37.47-22.441 2.65 9.05 1.809 19.36 0.339 28.8 26.93 20.37 60.9 27.891 93.85 31.361 73.19 6.58 147.98-4.3909 216.91-29.511 3-12.58 3.121-26.509 5.521-39.539zm-313.83 276.2c5.01 28.34 2.471 62.01 3.841 92.2 26.94 21.97 61.68 31.349 95.57 35.639 79.31 8.68 160.3-5.1894 234.3-34.159 4.66-27.13 6.03-55.99 9.96-83.73 18.64-4.56 47.029-1.3312 51.279 21.369 5.93 40.7-16.869 78.081-31.279 114.66-15.33 88.18-14.209 178.11-15.189 267.28-104.8 30.81-221.42 24.65-320.23-23.23-1.16-0.41-1.759-1.1906-1.779-2.3406-15.92-90.02-31.5-180.41-57.78-268.11-11.2-26.41-24.871-55.611-15.841-84.561 6.55-20.28 27.45-31.299 47.15-35.019zm364.58 297.81c24.3 3.16 48.578 16.43 60.018 38.83 21.29 43.44 6.011 94.1-11.039 136.17-10.36 60.3-13.321 121.76-17.011 182.58-14.92 28.33-15.958 61.71-14.668 92.6-21.75-34.34-27.071-75.75-36.141-114.28-37.99 54.99-67.529 121.45-54.309 189.79-29.45 5.67-59.46 12.259-89.3 12.689-6.33-24.23-7.121-50.84 2.579-74.32 17.6-45.83 58.391-77.7 99.071-102.45-55.01-17.02-114.79 2.6012-156.78 39.731-1 0.83-6 5.66-5.2 1.85 24.74-62.83 57.761-123.79 103.52-173.49-34.11 4-70.23 19.1-99.63 39.35-53.17 36.81-82.4 99.54-90.52 162.33-4.65 2.46-0.76-7.9197-3.11-8.9797-11.04-52.16-26.03-104.18-52.14-150.96-8.51-33.83-14.329-68.361-22.589-102.26-18.78-31.54-39.5-65.709-37.4-103.81 1.81-26.73 27.968-44.491 53.318-44.391 5.46 30.02 9.621 60.3 14.571 90.43 67.65 27.41 140.74 40.541 213.57 41.511 50.59-1.59 105.89-8.6806 145.63-42.941 0.51-36.53-3.599-73.32-2.439-109.98zm-422 223.1c29.79 19.91 50.3 51.799 65.95 83.809 22.03 47.98 33.349 99.87 45.029 151.1 15.27-46.71 20.959-98.869 52.289-138.79 25.77-31.99 63.471-51.66 101.44-65.45-9.65 10.73-18.48 22.49-25.7 35.18-36.13 62.7-63.17 131.76-72.22 203.87 9.14-20.25 13.119-43.54 23.379-63.67 34.63-28.34 71.361-66.679 120.19-61.859 4.27 1.83 13.781-0.11 15.341 4.4-29.31 8.27-55.67 29.07-67.3 57.65-14.37 34.18-11.701 72.26-9.641 108.4-22.93-1.26-46.93 7.4597-61.05 26.08-23.58-9.41-47.779-18.31-73.009-21.87-67.6 3.79-134.34 20.26-196.98 45.77-55.85-8.1-114.4-20.65-169.71-2.8 10.46-20.49 31.37-33.63 53.33-38.63 35.29-7.69 71.599-3.2912 107.33-2.8312-40.93-46.35-80.42-99.729-137.45-126.71 68.72 8.81 121.12 58.13 177.63 93.25-19.15-19.88-39.791-38.629-61.641-55.609-14.44-67.67-22.231-140.43-65.041-197.53 82.17 23.61 123.26 105.44 168.87 169.99-5.43-14.27-18.791-25.7-17.971-42.02-1.9-33.03-6.789-68.07-28.859-94.13 32.19 4.83 47.991 37.599 67.041 60.109 10.13-41.37 5.42-87.719-11.25-127.71zm497.93 114.09c-13.61 38.19-8.39 85.749 4.76 125.69-3.99 19.8-6.44 39.911-9.83 59.841 23.88-60.9 33.471-133.55 83.141-181.77-28.63 56.63-25.14 121.46-31.15 182.85 38.99-28.08 74.178-71.09 126.02-71.93 7.89 1.23 21.021 0.9891 25.891 6.7891-50.87 19.03-88.07 60.54-124.83 98.6-54.16 5.96-107.73 22.341-153.79 51.891-3.49 2.56-4.15-3.1406-5.33-5.0906-7.85-19.42-21.811-37.65-42.091-44.9-14.26-63.27-9.66-135.49 27.3-190.04 0.46 45.37 23.451 85.909 49.321 121.64 5-39.59 2.549-83.389 18.779-121.71 5.89-14.27 16.921-26.819 31.811-31.859zm-148.02 204.04c5.236 0.05 5.686 9.7987 7.178 14.536-15.5-3.07-31.409 4.5797-45.439-4.7703 12.6-3.14 25.379-5.6506 37.739-9.7406 0.179-0.019 0.353-0.027 0.522-0.025z" fill="#1f1b17"/>
<path id="path8" d="m12305 45.47c-128.45 1.82-257.36 27.509-376.69 75.909-2.55 0.93-4.349 3.2603-5.539 5.5703-71.11 103.75-125.7 217.67-174.98 333.08-0.32-0.51-0.969-1.54-1.289-2.05l-0.79-0.25c-4.22 18.66-12.241 38.181-21.021 54.061 14.02-96.35 27.741-194.43 66.321-284.61-97.19 28.29-180.59 90.8-250.35 162.55-2.96 2.62-4.309 6.39-4.889 10.2-34.07 127.92-37.41 261.02-47.45 392.27-45.66-67.35-54.802-153.38-42.382-232.27-0.34-0.45 2.661-12.189-0.479-7.2891-52.3 118.46-70.319 248.52-80.339 376.61-0.95 11.22-2.471 23.019 1.739 33.809 16.44 58.18 26.62 118.01 32.6 178.14-0.5 6.3 6.19 8.8097 10.54 11.78 44.21-143.13 97.72-284.48 173.93-413.93 64.97-110.69 148.57-213.41 256.9-284.1 88.39-58.43 192.31-91.44 297.58-100.42 103.25-10.38 206.85 0.76062 309.8 9.4406 9.88-1.29 2.98 1.4703 0.37 1.3703 1.78 0.39 15.07-0.19093 8.22 2.6391 167.03-3.92 334.68 26.201 489.79 88.311 102.12 40.26 198.99 93.08 290.58 153.4 0.31-0.49 0.919-1.46 1.229-1.95-9.97-40.64-25.571-80.021-47.611-115.66-50.29-82.69-130.88-141.14-214.99-186.02-11.58-5.26-21.979-14.659-35.329-14.609-111.36-11.52-223.95 6.9397-329.46 42.68 58.61-56.68 133.34-96.439 212.99-114.06-109.07-84.6-243.1-131.91-377.87-155.83-105.1 46.94-194.62 121.37-281.24 195.78-5.95 4.67-10.909 10.46-16.159 15.85-8.48 9.04-16.11 18.97-25.62 26.95 0.22-1.81 1.23-4.7809-1.5-2.8609-15.07 12.4-28.871 26.391-43.821 38.961 57.32-109.98 126.4-218.33 227.21-293.45zm-1752 511.14c-92.722-0.34281-185.34 26.467-269.62 64.331 62.24 15.69 120.71 46.129 169.2 88.189 43.75 36.28 79.721 80.57 117.52 122.63 160.74-15.06 322.25 22.62 468.35 88.5 126.28 56.03 241.73 133.42 351.38 216.67-12.12-78.32-26.099-157.3-55.979-231.08-30.63-77.24-83.73-148.44-158.3-187.68 28.38 81.28 33.489 168.07 42.089 253.03-47.87-105.65-90.07-216.06-159.11-310.07-97.86-42.64-200.32-86.34-308.92-84.7 80.46 61.68 126.79 155.38 163.05 247.69-6.26-6.9-12.151-14.151-16.991-22.111-1.43-1.9-3.19-3.4894-4.9-5.1094-71.53-83.3-144.09-168.79-237.51-228.5-33.174-7.99-66.725-11.667-100.26-11.791zm-382.2 142.62c-14.464-0.33564-25.825 11.112-38.18 17.683-93.3 58.74-185.99 127.86-242.5 224.52 70.33-11.47 141.73 7.06 204.72 38.05-101.7 0.96-204.87 14.571-299.68 52.941-75.65 107.51-148.12 228.67-147.55 364.61 2.12 4.14-4.14 16.26 3 16.18 62.13-107.1 151.28-195.79 247.83-272.16-1.52-0.11-3.0297-0.2494-4.5297-0.4594 9.53-7.84 20.611-13.43 30.841-20.27-1.42-1.43 0.59-2.15 1.55-2.95 81.9-55.18 163.67-111.03 250.52-158.27 120.32-66.75 252.61-114.24 390.06-127.67-124.85-55.99-249.75-125.25-389.68-131.29-2.205-0.57749-4.336-0.86611-6.402-0.91406zm1865.2 304.88c-64.674-0.1222-128.65 19.42-184.48 51.698-62.16 36.6-117.05 86.3-164.54 139.43 102.77 5.68 208.13 19.64 307.85 49.62 15.95 5.81 33.121 5.8803 49.761 8.2703 108.22 13.53 215.87 37.04 317.31 77.7 145.32 56.58 275.9 152.44 368.98 278.02 92.46 122.06 150.85 265.28 199.73 409.27 26.29 75.64 49.46 152.33 76.3 227.79 1.08 2.26-3.562-2.1203-2.382 0.1797 6.67 17.21 11.611 35.15 19.271 51.95 15.22 35.13 26.21 71.87 37.97 108.22 79.07-118.69 80.889-269.69 68.559-406.57-65.45-83.1-150.96-148.14-241.76-201.31 72.53 3.38 145.64 26.379 203.61 71.009 2.29 1.23 5.651 3.48 2.761-3.2-3.26-116.12-49.751-225.58-104.06-326.35-6.3-10.01-9.968-23.53-22.418-27.57-131.73-71.3-285.68-73.819-430.86-91.319 85.68-29.88 174.97-56.83 266.78-53.6 35.59 1.25 70.701 7.8888 105.07 16.869-76.67-105.99-179.2-200.73-306.93-238.76-116.03 4.05-227.5 40.491-336.8 76.641-3.14 0.64-6.09 1.89-8.93 3.3-8.19 3.27-16.52 6.23-25.02 8.55 82.09-62.53 174.81-119.66 279.57-131.08 0.07-0.4 0.2-1.1891 0.26-1.5891-99.3-56.5-214.97-71.92-326.56-85.8-112 46.89-209.43 121.02-309.6 188.26 52.58-70.64 105.11-142.96 173.5-199.34-4.315-0.185-8.63-0.2809-12.942-0.289zm-1020.1 181.59c-69.567 0.097-138.82 6.3688-206.59 23.811 82.76 1.5 169.97 24.05 230.28 83.58-133.15-13.21-267.05-34.34-401.01-21.62-84.6 55.49-162.97 127.35-207.62 219.62 96.23-21 195.57-18.589 293.37-14.859-14.85 4.18-42.4 10.17-55.95 12.25-1.34-0.79-2.291-0.7403-2.841 0.1297 5.85 2.05-5.65 2.0103-6.32 2.9203-121.09 28.9-242.31 61.88-355.59 114.32-70.37 108.87-116.89 232.32-142.95 359.05 92.49-85.22 210.79-134.07 329.04-171.93-15.83 14.2-33.84 25.731-49.83 39.731 1.88-0.11 4.021-0.97 5.791-0.05-9.65 6.95-19.692 13.389-30.032 19.259-6.06 4.4-11.558 9.6906-18.268 13.241-87.65 70.64-174.7 144.84-239.67 237.74-2.82 3.05-3.48 7.1606-3.05 11.191 0.45 133.08 23.67 268.42 83.85 388.1 0.84 0.73 1.85 6.1503 3.53 4.1703 31.39-74.53 82.61-141.49 148.75-188.25-54.56 100.37-94.34 211.39-99.45 326.26 26.05 89.36 63.97 177.95 128.15 246.91 35.93 38.1 79.569 68.571 127.21 90.231-12.08-18.43-32.36-34.71-45.6-53.85-80.38-100.35-120.65-229.51-120.44-357.39-1.18-8.49 4.48-15.641 3.78-24.041-1.42-7.02 1.009-14.099 1.059-21.119 15.14-230.41 39.562-466.35 133.18-680.14 54.52-124.58 132.65-238.95 230.31-333.7 141.25-140.06 319.49-236.76 502.91-309.37-77.918-8.4787-157.16-16.3-236-16.191zm496.39 24.702c118.26 64.57 230.97 140.42 330.29 231.77 147.82 134.03 260.94 307.5 316.26 499.73 67.92 228.56 57.24 470.08 43.73 705.3-1.18 63.57-7.01 128.44-32.01 187.64-40.2 101.51-127.19 176.6-222.01 226.28 1.59 3.35 5.231-0.1388 7.821-0.4188 62.14-18.89 119.91-52.24 166.64-97.42 61.06-58.21 105.07-131.82 140.46-207.74 11.86-113.84-8.31-229.41-47.9-336.26 58.68 55.47 98.969 128.87 118.93 206.8 80.07-112.77 126.19-246.56 148-382.31 0.43-3.95-0.84-7.5191-2.7-10.839-48.1-96.67-119.34-179.4-193.43-257.01-8-8.69-16.09-17.139-25.41-24.489-7.21-7.01-15.55-12.741-22.12-20.341 1.93 0.58 3.85 1.27 5.82 1.9-13.47-16.4-29.79-30.16-43.8-46.03 110.46 51.44 220.83 113.49 298.18 210.11-4.63-126.97-31.35-255.77-83.6-372.66-105.32-68.02-222.52-115.01-339.59-158.81-2.48-1.26-10.268-1.1303-8.318-4.6203-16.2-2.41-31.18-10.43-46.7-15.57 96.68 7.02 195.06 16.44 287.01 49.38-28.54-91.99-90.19-170.14-160.5-234.34-4.67-3.8-8.531-9.7006-15.191-9.9406-129.57-27.09-262.77-21.91-394.25-25.42 67.56-51.11 157.43-63.41 239.95-54.92-147.27-57.72-309.5-59.939-465.56-59.769z" fill="#6fbc3e"/>
<path id="path14" d="m12298 361.12c-73.58-0.11224-147.07 3.825-219.58 17.125-125.8 21.6-245.37 80.58-335.52 171.48-83.64 82.73-145.17 184.83-195.63 290.37-49.26 104.95-88.249 214.54-120.86 325.69 9.31 4.03 17.979 9.8594 27.629 13.009 21.64-92.36 49.49-183.36 84.31-271.62 45.76-114.35 104.84-225.17 188.44-316.56 77.95-86.79 180.74-150.77 293.25-181.75 122.99-35.14 252.07-34.111 378.79-38.161 19.31-1.6 38.841-1.8897 58.261-2.7297 6.85-2.83-6.44-2.2491-8.22-2.6391-50.139-2.1653-100.52-4.1388-150.87-4.2156zm-1661.5 487.22c-95.98 0.38496-191.31 19.974-281.94 51.077-152.58 53.34-292.62 135.98-429.38 220.9-10.23 6.84-21.311 12.43-30.841 20.27 1.5 0.21 3.0097 0.3494 4.5297 0.4594 25.99-18.46 55.011-31.93 83.091-46.78 177.59-95.73 360.09-196.78 564.25-219.19 177.1-22.84 357.08 22.231 513.06 105.79 114.55 60.8 218.72 139.48 314.95 226.04 6.81 6.92 14.58 13.161 24.07 15.931 197.92 79.09 387.83 190.78 528.97 353.04 77.56 89.35 138.29 193.12 178.7 304.3 83.78 225.84 82.55 470.24 90.6 707.53 1.18 25.71 3.571 51.401 3.571 77.161 3.2-4.66-0.241-15.811 1.629-22.241 4.77-247.52 8.61-502.13-68.77-740.46-37.71-114.77-96.07-222.78-172.88-316.14-145.61-177.78-344.8-301.5-549.63-400.33-117.26-93.33-241.2-180.01-377.37-243.66-114.89-53.77-239.49-89.671-366.81-93.191-9.938-0.37968-19.874-0.54608-29.803-0.50624zm688.84 352.72c-3.314-0.049-6.815 0.9944-10.535 3.5406-164.27 57.13-324.79 130.44-463.61 236.45-93.7 71.39-176.04 158.21-239.07 257.92-52.34 81.74-91.66 171.25-121.58 263.43-58.38 182.38-82.041 373.24-104.64 562.69-0.05 7.02-2.479 14.099-1.059 21.119 4.21-27.63 10.399-54.919 14.909-82.489 26.04-149.07 46.962-299.62 90.082-445.03 25.71-88.23 59.619-174.33 104.23-254.77 85.15-155.83 215.17-285.38 368.21-374.79 123.61-73.29 259.57-124.06 398.54-159.34-10.237-7.8-21.115-28.52-35.476-28.731zm676.3 73.331c-16.16 2.1-32.821 3.6397-48.621 6.4297 166.85 14.99 334.95 50.429 484.13 129.19 114.32 58.26 213.5 143.83 293.05 243.92-85.68-128.45-209.33-231.39-351.94-291.04-119.34-50.4-247.93-77.71-376.62-88.5z" fill="#c4e1a7"/>
<path id="path52" d="m11110 1409.1c58.9 123.63 116.81 248.95 151.68 381.9-1.73 7.33-7.541 13.871-7.411 21.491 49.68 63.39 131.24 114.26 214.5 95.33-9.41-38.16-21.37-76.009-29.28-114.61 1.8-4.93 4.619-9.4103 6.209-14.42-44.25 19.41-95.299 9.4803-138.59-7.8297-27.05-16.98-53.54-38.86-65.8-69.22-11.42-27.24-1.569-58.881 17.571-79.941-45.15-73.61-96.022-144.33-148.88-212.7zm539.1 24.041c-61.41 59.81-120.8 122.18-175.93 187.89 12 16.14 20.179 35.089 23.729 54.889 46.69-82.97 98.83-163.7 152.2-242.78zm249.91 252.99c-45.05 56.56-89.631 113.95-132.91 171.86 10.6 3.72 20.941 8.3397 29.961 15.18 33.96-62.48 68.96-124.62 102.95-187.04zm-651.15 138.93c-13.05 31.12-28.469 62.21-41.429 92.97 43.87-2.85 91.568 21.05 106.37 64.2 15.62 46.23-9.25 94.789-40.55 128.07-30.56 35.98-81.02 57.01-128.05 49.55 35.37 20.52 81.051 20.4 120.66 12.05 62.29-13.33 121.54-54.069 145.12-114.86 15.83-39.54 13.449-84.13 1.329-124.33-66.86-10.52-123.26-55.01-163.45-107.65zm227.54 103.2c-10.08 1.6-20.01 4.4794-30.3 4.8094 15.48 47.46 10.462 101.77-17.218 143.83-5.31 5.66-1.18 13.67 0.25 20 14.42 49.95 37.039 99.41 75.579 135.42 29.09 28.14 67.35 46.221 107.16 52.761-0.84-7.66-9.829-14.45-4.989-22.12 23.89-56.18 51.198-111.45 75.818-166.85-27.78 1.53-54.36-13.921-67.75-38.111-19.45 23.47-36.698 49.271-55.868 73.141-35.76-63.92-61.112-133.08-82.682-202.88z" fill="#5f3d2e"/>
<path id="path60" d="m11473 1621c-4.51 5.17-9.29 10.2-13.15 15.88 15.66 23.08 22.009 52.699 14.729 79.909 8.12-12.58 15.23-27.18 22.15-40.9-3.55-19.8-11.729-38.749-23.729-54.889zm-214.29 0.7688c-19.14 21.06-28.991 52.701-17.571 79.941 12.26 30.36 38.75 52.24 65.8 69.22 43.29 17.31 94.339 27.24 138.59 7.8297 5.54-12.7 12.241-24.92 17.141-37.9-35.61 42.97-99.54 35.59-145.78 16.12-22.05-14.09-43.72-32.151-54.25-56.761-8.2-19.36-3.989-42.399 7.971-59.259-3.82-6.48-7.65-13.001-11.9-19.191zm507.22 236.19c-4.91 5.61-10.13 11.891-13.6 18.091 12.39 1.36 23.191 8.7197 33.461 15.23 4.67-5.11 6.77-12.151 10.1-18.141-9.02-6.84-19.361-11.46-29.961-15.18zm-551.41 59.817c-2.763-0.029-5.52 0.045-8.261 0.2234-4.02 6.25-7.631 13.199-9.941 20.189 26.48-2.28 54.821 3.2703 75.541 20.77 23.6 19.39 32.088 53.19 22.918 81.98-17.34 55.22-68.848 101.91-128.67 100.92-29.27 0.11-52.26-24.19-60.3-50.75-4.19 3.6-8.042 8.7203-9.932 13.92 7.21 23.87 25.78 44.159 48.15 54.789 47.03 7.46 97.49-13.57 128.05-49.55 31.3-33.28 56.17-81.839 40.55-128.07-13.875-40.453-56.665-63.988-98.107-64.423zm413.19 121.33c-4.82 6.09-9.952 12.169-13.932 18.859 13.39 24.19 39.97 39.641 67.75 38.111 4.08-5.14 7.94-13.76 9.6-20.23-26.65 3.73-52.468-12.881-63.418-36.741z" fill="#9d715c"/>
<path id="path64" d="m11460 1636.9c-15.41 17.72-29.46 36.679-44.15 55.009-18-10.9-34.701-24.25-48.971-39.75-20.42 15.6-41.63 31.311-65.7 40.761-10.26-17.13-20.108-34.741-30.418-51.941-11.96 16.86-16.171 39.899-7.971 59.259 10.53 24.61 32.2 42.671 54.25 56.761 46.24 19.47 110.17 26.85 145.78-16.12 5.04-7.38 8.859-15.69 11.909-24.07 7.28-27.21 0.931-56.829-14.729-79.909zm292.48 239.17c-42.4 53.61-83.178 108.65-124.62 163.06 10.95 23.86 36.768 40.471 63.418 36.741 31.88-61.01 62.381-123.54 94.661-184.57-10.27-6.51-21.071-13.87-33.461-15.23zm-546.01 61.659c-3.349 0.032-6.688 0.1947-9.998 0.4797-27.28 52.32-56.039 104.72-90.509 152.92 8.04 26.56 31.03 50.86 60.3 50.75 59.82 0.99 111.33-45.7 128.67-100.92 9.17-28.79 0.682-62.59-22.918-81.98-18.13-15.312-42.095-21.476-65.543-21.25z" fill="#f8c300"/>
<path id="path92" d="m11413 2098c16.58 56.62 38.98 119.38 86.84 159.31-36.61 4.44-74.86 0.59-110.54-9.08-2.75-38.23-4.78-76.79-10.55-114.81 10.55-12.23 24.3-22.27 34.25-35.42z" fill="url(#linearGradient4356)"/>
<path id="path94" d="m11352 2232.4c11.36-12.1 32.25-7.49 24.93 12.13 38.77 28.66 90.55 25.35 136.15 23.76 47.814 17.361 29.582 12.698 108.7 40.92-9.36 44.32-16.11 89.36-22.07 134.34-63.56 28.86-137.57 31.46-204.65 13.99-2.55-50.9-5.79-102.14-17.79-151.84-10.27-23.29-31.76-46.29-25.27-73.3z" fill="url(#linearGradient4300)"/>
<path id="path98" d="m11614 2434.3c11.59 0.49 23.45 5.5 31.26 14.18 11.24 14.81 5 34.52-2.51 49.57-16.65 51.43-22.05 105.55-31.33 158.54-66.73 28.34-143.17 31.34-213.1 13.76-4.37-51.11-6.12-103.19-19.79-153.04-10.79-20-25.77-39.97-25.27-63.71 0.71-16.91 38.93-23.63 29.5 0.02 14.97 12.83 36.05 18.56 55.55 21.88 55.99 8.33 113.45-0.13 166.85-17.95 11.54-1.51 6.1-15.52 8.84-23.25" fill="url(#linearGradient4308)"/>
<path id="path102" d="m11383 2627.2c5.85 8.47-0.21 27.89 2.89 39.88 22.65 15.95 50.85 21.23 77.99 23.26 54.51 3.76 109.78-4.42 161.2-22.69 2.01-11.37 2.94-22.95 4.37-34.4 14.35-4.01 40.18-4.48 41.41 16.09-0.75 25.73-17.28 46.83-28.33 68.97-12.34 50.62-16.31 102.83-19.14 154.72-0.11 3.39 0.79 11.07-5.59 9.58-74.54 16.34-156.23 15.48-226.34-17.05-8.09-55.47-15.89-111.26-31.54-165.21-6.51-14.63-13.45-30.67-10.28-46.95 3.58-15.24 18.91-23.86 33.36-26.2" fill="url(#linearGradient4316)"/>
<path id="path106" d="m11372 2849.3c4.06 8.39 1.69 20.82 5.73 29.62 52.7 18.53 109.12 26.24 164.88 24.95 32-2.02 65.64-7.13 92.54-25.8 1.84-8.54-0.56-18.03 1.02-26.77 14.67-2.29 37.4-0.89 41.32 17.26 4.25 26.84-11.36 51.3-21.23 75.09-8.9 59.97-5.52 120.94-1.52 181.17-83.85 19.75-174.78 17.84-254.67-16.39-9.35-61.25-17.72-122.95-35.21-182.54-7.67-17.86-18.6-35.48-18.69-55.5 0.63-13.07 14.57-19.39 25.83-21.09z" fill="url(#linearGradient4324)"/>
<path id="path108" d="m11665 3082.8c20.29 2.58 44.88 9.79 52.93 30.9 6.98 19.5-0.62 39.98-8.86 57.78-19.49 68.29-28.86 138.91-38.48 209.11-86.06 39.59-186.89 42.43-277.88 19-3.4-68.45-7.8-137.45-24.21-204.27-13.58-26.82-32.51-52.91-33.54-84.04 0.51-21.87 28.56-26.83 45.29-20.46 0.92 10.28 2.21 20.55 3.64 30.8 50.85 18.51 105.14 26.33 159.07 28.22 42.63-0.13 88.52-3.71 125.08-27.85 1.58-12.73-2.33-26.18-3.04-39.19z" fill="url(#linearGradient4332)"/>
<path id="path110" d="m11692 3357.1c23.65 1.4 50.71 14.96 55.79 40.12 6.9 30.73-12.02 57.63-17.13 86.72-17.5 73.88-25.73 149.48-36.15 224.57-90.69 45.14-198.74 48.91-295.39 21.85-3.7-80.57-8.1-161.8-26.02-240.71-15.28-32.04-36.18-64.39-35.19-101.22 1.62-18.09 21.63-25.23 37.47-22.44 2.65 9.05 1.81 19.36 0.34 28.8 26.93 20.37 60.9 27.89 93.85 31.36 73.19 6.58 147.98-4.39 216.91-29.51 3-12.58 3.12-26.51 5.52-39.54z" fill="url(#linearGradient4340)"/>
<path id="path112" d="m11378 3633.3c5.01 28.34 2.47 62.01 3.84 92.2 26.94 21.97 61.68 31.35 95.57 35.64 79.31 8.68 160.3-5.19 234.3-34.16 4.66-27.13 6.03-55.99 9.96-83.73 18.64-4.56 47.03-1.33 51.28 21.37 5.93 40.7-16.87 78.08-31.28 114.66-15.33 88.18-14.21 178.11-15.19 267.28-104.8 30.81-221.42 24.65-320.23-23.23-1.16-0.41-1.76-1.19-1.78-2.34-15.92-90.02-31.5-180.41-57.78-268.11-11.2-26.41-24.87-55.61-15.84-84.56 6.55-20.28 27.45-31.3 47.15-35.02z" fill="url(#linearGradient4292)"/>
<path id="path114" d="m11743 3931.1c24.3 3.16 48.58 16.43 60.02 38.83 21.29 43.44 6.01 94.1-11.04 136.17-10.36 60.3-13.32 121.76-17.01 182.58-14.92 28.33-15.96 61.71-14.67 92.6-21.75-34.34-27.07-75.75-36.14-114.28-37.99 54.99-67.53 121.45-54.31 189.79-29.45 5.67-59.46 12.26-89.3 12.69-6.33-24.23-7.12-50.84 2.58-74.32 17.6-45.83 58.39-77.7 99.07-102.45-55.01-17.02-114.79 2.6-156.78 39.73-1 0.83-6 5.66-5.2 1.85 24.74-62.83 57.76-123.79 103.52-173.49-34.11 4-70.23 19.1-99.63 39.35-53.17 36.81-82.4 99.54-90.52 162.33-4.65 2.46-0.76-7.92-3.11-8.98-11.04-52.16-26.03-104.18-52.14-150.96-8.51-33.83-14.33-68.36-22.59-102.26-18.78-31.54-39.5-65.71-37.4-103.81 1.81-26.73 27.97-44.49 53.32-44.39 5.46 30.02 9.62 60.3 14.57 90.43 67.65 27.41 140.74 40.54 213.57 41.51 50.59-1.59 105.89-8.68 145.63-42.94 0.51-36.53-3.6-73.32-2.44-109.98z" fill="url(#linearGradient4348)"/>
<path id="path116" d="m11321 4154.2c16.67 39.99 21.38 86.339 11.25 127.71-19.05-22.51-34.851-55.279-67.041-60.109 22.07 26.06 26.959 61.1 28.859 94.13-0.82 16.32 12.541 27.75 17.971 42.02-45.61-64.55-86.701-146.38-168.87-169.99 42.81 57.1 50.601 129.86 65.041 197.53 21.85 16.98 42.491 35.729 61.641 55.609-56.51-35.12-108.91-84.44-177.63-93.25 57.03 26.98 96.52 80.359 137.45 126.71-35.73-0.46-72.039-4.8588-107.33 2.8312-21.96 5-42.87 18.14-53.33 38.63 55.31-17.85 113.86-5.3 169.71 2.8 62.64-25.51 129.38-41.98 196.98-45.77 25.23 3.56 49.429 12.46 73.009 21.87 14.12-18.62 38.12-27.34 61.05-26.08-2.06-36.14-4.729-74.22 9.641-108.4 11.63-28.58 37.99-49.38 67.3-57.65-1.56-4.51-11.071-2.57-15.341-4.4-48.83-4.82-85.561 33.519-120.19 61.859-10.26 20.13-14.239 43.42-23.379 63.67 9.05-72.11 36.09-141.17 72.22-203.87 7.22-12.69 16.05-24.45 25.7-35.18-37.97 13.79-75.671 33.46-101.44 65.45-31.33 39.92-37.019 92.079-52.289 138.79-11.68-51.23-22.999-103.12-45.029-151.1-15.65-32.01-36.16-63.899-65.95-83.809zm497.93 114.09c-14.89 5.04-25.921 17.589-31.811 31.859-16.23 38.32-13.779 82.119-18.779 121.71-25.87-35.73-48.861-76.269-49.321-121.64-36.96 54.55-41.56 126.77-27.3 190.04 20.28 7.25 34.241 25.48 42.091 44.9 1.18 1.95 1.84 7.6506 5.33 5.0906 46.06-29.55 99.63-45.931 153.79-51.891 36.76-38.06 73.96-79.57 124.83-98.6-4.87-5.8-18.001-5.5591-25.891-6.7891-51.84 0.84-87.028 43.85-126.02 71.93 6.01-61.39 2.52-126.22 31.15-182.85-49.67 48.22-59.261 120.87-83.141 181.77 3.39-19.93 5.84-40.041 9.83-59.841-13.15-39.94-18.37-87.499-4.76-125.69z" fill="#1b9a3d"/>
</g>
<path id="path120" d="m11942 4485c20.27-1.39 47.95-2.13 68.06 0.04-22.7-0.08-45.38 0-68.06-0.04z" fill="#513125"/>
<path id="path96" d="m11382 2280.2c47.98 38.94 122.78 44.951 175.65 12.891-6.93-3.44-14.149-6.9797-21.029-9.8797-50.54 11.96-104.42 10.549-154.62-3.0109zm-0.479 209.61c35.69 35.72 90.23 47.66 139.02 38.4 23.03-3.54 48.761-11.78 63.541-30.42-66.4 17.12-137.94 16.54-202.56-7.9797zm-1.18 204.17c56.68 56.72 152.98 51.111 216.12 7.9812 6.06-3.88-5.06-3.2006-6.89-1.9906-68.25 19.36-142.52 19.589-209.23-5.9906zm3.098 214.7c65.548 59.138 176.92 57.638 249.93 17.202 7.008-3.6215-5.852-3.4163-7.968-2.2844-78.928 16.448-164.82 13.509-241.96-14.917zm0 246.45c71.997 59.944 194.32 59.813 274.52 20.275 7.697-3.5353-6.427-3.4872-8.752-2.3813-86.693 15.477-181.04 11.482-265.77-17.894zm302.07 280.19c-3.132 0.028-7.635 0.7779-8.908 1.4609-94.944 25.184-198.26 31.751-291.06 11.864 78.848 51.883 212.81 38.056 300.65-10.462 4.215-2.1986 2.455-2.8909-0.677-2.8625zm16.325 343.03c-3.308-0.068-8.063 0.5436-9.408 1.1876-100.28 22.272-209.41 25.671-307.43 2.9375 83.283 54.302 224.78 44.583 317.56-1.2407 4.452-2.0692 2.592-2.8166-0.716-2.8844zm-305.99 312.5c87.716 59.944 236.75 59.813 334.46 20.275 9.378-3.5353-7.831-3.487-10.663-2.3812-105.62 15.477-220.56 11.481-323.8-17.894z" fill="#5f3d2e"/>
</g>
</svg>
